<?xml version="1.0" standalone="no"?>
<!DOCTYPE svg PUBLIC "-//W3C//DTD SVG 20010904//EN"
 "http://www.w3.org/TR/2001/REC-SVG-20010904/DTD/svg10.dtd">
<svg version="1.0" xmlns="http://www.w3.org/2000/svg"
 width="256.000000pt" height="256.000000pt" viewBox="0 0 256.000000 256.000000"
 preserveAspectRatio="xMidYMid meet">
<metadata>
Created by potrace 1.14, written by Peter Selinger 2001-2017
</metadata>
<g transform="translate(0.000000,256.000000) scale(0.100000,-0.100000)"
fill="#000000" stroke="none">
<path d="M442 2265 c-142 -32 -240 -102 -292 -209 -61 -126 -61 -123 -58 -803
l3 -618 27 -80 c34 -98 94 -172 171 -209 152 -75 460 -74 614 1 155 76 212
231 213 576 l0 117 -185 0 -185 0 0 -180 c0 -200 -6 -227 -60 -255 -17 -9 -55
-15 -94 -15 -58 0 -69 3 -100 30 -24 22 -36 43 -41 71 -9 53 -9 1111 0 1176 5
38 14 58 36 79 28 27 36 29 109 29 74 0 82 -2 107 -28 l28 -27 3 -195 3 -195
180 0 179 0 1 28 c0 15 3 54 5 88 3 34 1 117 -5 185 -20 250 -97 365 -281 420
-96 28 -284 36 -378 14z"/>
<path d="M1370 2028 c-1 -122 -1 -612 0 -760 l0 -118 65 0 65 0 0 219 0 219
70 1 70 0 0 -219 0 -220 65 0 65 0 0 485 0 485 -65 0 -65 0 0 -210 0 -210 -70
0 -70 0 0 210 0 210 -65 0 -65 0 0 -92z"/>
<path d="M2140 1635 l0 -485 65 0 65 0 0 485 0 485 -65 0 -65 0 0 -485z"/>
<path d="M1480 845 l0 -105 -105 0 -105 0 0 -65 0 -65 105 0 105 0 0 -105 0
-105 70 0 70 0 0 105 0 105 105 0 105 0 0 65 0 65 -105 0 -105 0 0 105 0 105
-70 0 -70 0 0 -105z"/>
<path d="M2130 845 l0 -105 -105 0 -105 0 0 -65 0 -65 105 0 105 0 0 -105 0
-105 70 0 70 0 0 105 0 105 100 0 100 0 0 65 0 65 -100 0 -100 0 0 105 0 105
-70 0 -70 0 0 -105z"/>
</g>
</svg>
